<?xml version="1.0" encoding="utf-8"?>
<!-- Generator: Adobe Illustrator 28.0.0, SVG Export Plug-In . SVG Version: 6.00 Build 0)  -->
<svg version="1.1" id="Layer_1" xmlns="http://www.w3.org/2000/svg" xmlns:xlink="http://www.w3.org/1999/xlink" x="0px" y="0px"
	 viewBox="0 0 1361.118 250.085" enable-background="new 0 0 1361.118 250.085" xml:space="preserve">
<g>
	<g>
		<g>
			<defs>
				<path id="SVGID_1_" d="M173.917,8.036c-27.715-4.472-63.529-4.982-90.639-1.472c27.114,3.528,52.733,8.416,77.251,18.352
					L173.917,8.036z"/>
			</defs>
			<use xlink:href="#SVGID_1_"  overflow="visible" fill="#FFFFFF"/>
			<clipPath id="SVGID_00000051364992475308212400000002460666544994563214_">
				<use xlink:href="#SVGID_1_"  overflow="visible"/>
			</clipPath>
			
				<rect x="-111.318" y="-179.406" clip-path="url(#SVGID_00000051364992475308212400000002460666544994563214_)" fill="#FFFFFF" width="629.103" height="629.103"/>
		</g>
		<g>
			<defs>
				<path id="SVGID_00000154427390319449493510000006782507107599836294_" d="M393.999,234.113
					c-5.554-4.511-8.332-13.024-8.327-25.558l0.047-109.888c0.012-28.243-2.719-48.895-8.187-61.963
					C368.013,13.579,349.04,2,320.624,1.988c-17.478-0.007-34.604,5.459-51.377,16.392c-8.04,5.26-19.992,14.513-30.331,24.48
					c2.525,3.117,6.346,7.897,8.893,12.996c5.896-5.07,11.174-10.372,16.394-14.177c10.988-8.011,22.692-11.374,34.164-11.369
					c19.064,0.008,31.859,7.262,38.381,21.731c3.711,8.122,5.557,20.74,5.55,37.87l-0.049,114.126
					c-0.006,14.655-2.438,24.362-7.295,29.122c-4.864,4.764-14.971,7.847-30.324,9.252l-0.003,7.417l119.427,0.051l0.003-6.882
					C409.575,241.568,399.563,238.613,393.999,234.113z"/>
			</defs>
			<use xlink:href="#SVGID_00000154427390319449493510000006782507107599836294_"  overflow="visible" fill="#FFFFFF"/>
			<clipPath id="SVGID_00000063603487818945657380000007992012207784362171_">
				<use xlink:href="#SVGID_00000154427390319449493510000006782507107599836294_"  overflow="visible"/>
			</clipPath>
			
				<rect x="-111.318" y="-179.406" clip-path="url(#SVGID_00000063603487818945657380000007992012207784362171_)" fill="#FFFFFF" width="629.103" height="629.103"/>
		</g>
		<g>
			<defs>
				<path id="SVGID_00000028326925435508879230000006537818163855991955_" d="M233.728,234.363
					c-3.924-3.022-9.876-8.578-17.85-16.667c-0.255-0.255-0.51-0.516-0.764-0.778c1.963-1.71,3.85-3.471,5.667-5.283
					c4.841-4.818,9.16-9.987,12.964-15.503c3.631-5.265,6.784-10.848,9.469-16.754c7.736-17.038,11.615-34.999,11.623-53.901
					c0.02-47.658-17.742-82.096-53.275-103.3c0.392-0.306,0.781-0.605,1.163-0.898c4.232-3.248,7.926-5.645,11.074-7.208
					c6.96-3.447,16.47-5.775,28.53-6.959l0.003-7.009l-50.255-0.021c-0.051-0.003-0.105-0.003-0.156-0.003
					c-0.051,0-0.105,0-0.156,0.003c-0.341,0.019-0.669,0.092-0.972,0.213c-0.37,0.15-0.704,0.366-0.985,0.643
					c-0.137,0.131-0.261,0.277-0.373,0.436l-1.594,1.876l-7.382,8.682l-7.471,8.784l-7.86,9.245l-5.189,6.102l-0.041,0.051
					l-4.912,5.777l-0.051,0.057c-0.143,0.162-0.29,0.328-0.437,0.494c-3.94,4.417-8.67,9.372-14.19,14.863
					c-3.302,3.286-6.885,6.761-10.751,10.429c-14.667,13.817-33.529,30.535-56.584,50.173c-0.134,0.111-0.277,0.229-0.417,0.353
					l0.034-80.514l0.006-15.232l0-0.832l0.009-20.055l0-0.006c0.006-0.006-0.01-0.016-0.054-0.026c0,0-0.003,0-0.007,0
					c-0.102-0.061-0.204-0.118-0.309-0.175c-0.178-0.099-0.363-0.191-0.548-0.277c-0.105-0.051-0.21-0.099-0.319-0.147
					c-0.064-0.029-0.124-0.054-0.188-0.08c-0.602-0.252-1.229-0.453-1.876-0.6c-0.083-0.019-0.162-0.038-0.245-0.054
					c-0.137-0.029-0.274-0.054-0.414-0.077c-0.061-0.01-0.121-0.019-0.182-0.029c-0.035-0.006-0.067-0.01-0.099-0.013
					c-0.076-0.013-0.156-0.022-0.232-0.032c-0.245-0.032-0.494-0.054-0.742-0.067c-0.124-0.006-0.249-0.013-0.376-0.016
					c-0.099-0.003-0.197-0.003-0.299-0.003c-0.102,0-0.201,0-0.299,0.003L33.533,0.014c-0.073-0.003-0.112-0.003-0.112-0.003v0.003
					L0.126,0L0.123,6.085l0,0.924c14.492,0.984,23.804,3.489,27.925,7.486c0.462,0.449,0.895,0.959,1.302,1.53
					c2.356,3.967,3.71,10.349,4.067,19.149c-0.013,52.545-0.046,145.434-0.046,145.434l0.083,0l-0.012,28.323
					c0,0.895-0.01,1.771-0.027,2.625c-0.254,12.715-2.357,20.711-6.293,23.99c-0.268,0.213-0.545,0.43-0.845,0.646
					c-0.022,0.01-0.042,0.032-0.064,0.041c-3.537,2.452-9.639,4.357-18.321,5.743c-2.428,0.375-5.063,0.721-7.889,1.019L0,250.04
					l105.661,0.045c4.444,0.002,8.777-0.085,12.999-0.262l26.344,0.011l19.252,0.008l96.221,0.041l0.003-6.455
					c-11.45-1.346-20.121-4.185-26.035-8.524C234.213,234.736,233.974,234.554,233.728,234.363z M165.269,220.485
					c-18.636,10.346-41.895,15.523-69.807,15.511c-9.539-0.004-15.821-0.991-18.856-2.974c-0.035-0.022-0.067-0.045-0.099-0.07
					c-0.13-0.22-0.252-0.449-0.372-0.685c-1.576-3.05-2.651-7.335-3.206-12.837c-0.305-3.039-0.459-6.452-0.457-10.243l0.012-28.199
					l0.045,0l0.017-40.171l0.417-0.388l11.19-10.353l72.672,78.58c3.802,4.188,6.859,7.993,9.145,11.435
					C165.738,220.223,165.505,220.354,165.269,220.485z M206.711,169.961c-3.046,9.26-7.189,17.57-12.429,24.928l-83.092-89.853
					l44.955-41.637l17.102-15.836l7.005-6.487c21.879,19.59,32.827,47.87,32.811,84.848
					C213.056,142.431,210.937,157.111,206.711,169.961z"/>
			</defs>
			<use xlink:href="#SVGID_00000028326925435508879230000006537818163855991955_"  overflow="visible" fill="#FFFFFF"/>
			<clipPath id="SVGID_00000042703424409085908610000014573738192028376979_">
				<use xlink:href="#SVGID_00000028326925435508879230000006537818163855991955_"  overflow="visible"/>
			</clipPath>
			
				<rect x="-111.318" y="-179.406" clip-path="url(#SVGID_00000042703424409085908610000014573738192028376979_)" fill="#FFFFFF" width="629.103" height="629.103"/>
		</g>
	</g>
	<g>
		<path fill="#FFFFFF" d="M487.029,79.272l-9.965,10.233v16.069h-11.668V42.736h11.668v32.227l31.06-32.227h13.106L494.84,70.833
			l28.007,34.74h-13.644L487.029,79.272z"/>
		<path fill="#FFFFFF" d="M538.019,42.736h27.469c20.377,0,34.289,12.568,34.289,31.419c0,18.851-13.913,31.418-34.289,31.418
			h-27.469V42.736z M564.947,95.699c14.006,0,23.071-8.528,23.071-21.544s-9.065-21.544-23.071-21.544h-15.26v43.088H564.947z"/>
		<path fill="#FFFFFF" d="M677.07,105.574l-0.091-41.652l-20.646,34.471h-5.207L630.481,64.46v41.114h-11.131V42.736h9.605
			l24.956,41.652l24.506-41.652h9.605l0.088,62.837H677.07z"/>
		<path fill="#FFFFFF" d="M508.303,181.162h11.043v25.045c-6.555,5.297-15.71,7.989-24.596,7.989
			c-19.48,0-33.842-13.555-33.842-32.316s14.363-32.316,34.021-32.316c10.503,0,19.301,3.501,25.225,10.234l-7.361,7.181
			c-4.936-4.938-10.593-7.181-17.323-7.181c-13.378,0-22.802,9.066-22.802,22.083c0,12.747,9.424,22.083,22.712,22.083
			c4.489,0,8.887-0.898,12.925-3.232V181.162z"/>
		<path fill="#FFFFFF" d="M582.992,213.299l-12.837-18.402c-0.807,0.089-1.616,0.089-2.423,0.089h-14.185v18.313h-11.668v-62.837
			h25.853c16.516,0,26.75,8.439,26.75,22.352c0,9.516-4.848,16.517-13.375,19.839l14.453,20.646H582.992z M567.192,160.336h-13.644
			v25.045h13.644c10.234,0,15.532-4.668,15.532-12.568S577.425,160.336,567.192,160.336z"/>
		<path fill="#FFFFFF" d="M655.437,198.756h-31.42l-6.195,14.542h-12.028l28.278-62.837h11.49l28.366,62.837H661.72L655.437,198.756
			z M651.577,189.6l-11.85-27.469L627.968,189.6H651.577z"/>
		<path fill="#FFFFFF" d="M741.704,172.814c0,13.824-10.231,22.352-26.75,22.352h-14.182v18.133h-11.671v-62.837h25.853
			C731.474,150.461,741.704,158.9,741.704,172.814z M729.945,172.814c0-7.9-5.295-12.477-15.529-12.477h-13.644v24.955h13.644
			C724.65,185.291,729.945,180.713,729.945,172.814z"/>
		<path fill="#FFFFFF" d="M816.394,150.461v62.837h-11.669v-26.931H772.23v26.931h-11.671v-62.837h11.671v25.943h32.495v-25.943
			H816.394z"/>
		<path fill="#FFFFFF" d="M840.455,150.461h11.668v62.837h-11.668V150.461z"/>
		<path fill="#FFFFFF" d="M871.782,181.881c0-18.761,14.363-32.316,33.664-32.316c10.234,0,19.03,3.681,24.865,10.503l-7.539,7.092
			c-4.579-4.937-10.234-7.36-16.788-7.36c-13.016,0-22.44,9.156-22.44,22.083s9.424,22.083,22.44,22.083
			c6.555,0,12.209-2.424,16.788-7.451l7.539,7.181c-5.836,6.823-14.632,10.503-24.956,10.503
			C886.144,214.197,871.782,200.642,871.782,181.881z"/>
		<path fill="#FFFFFF" d="M980.673,150.461h27.469c20.377,0,34.292,12.568,34.292,31.419c0,18.851-13.916,31.418-34.292,31.418
			h-27.469V150.461z M1007.604,203.425c14.003,0,23.071-8.528,23.071-21.544s-9.068-21.544-23.071-21.544h-15.26v43.088H1007.604z"
			/>
		<path fill="#FFFFFF" d="M1109.134,203.515v9.784h-47.13v-62.837h45.873v9.785h-34.202v16.337h30.342v9.605h-30.342v17.325
			H1109.134z"/>
		<path fill="#FFFFFF" d="M1124.038,206.656l4.038-9.066c5.026,4.039,13.016,6.912,20.736,6.912c9.786,0,13.916-3.501,13.916-8.168
			c0-13.555-37.343-4.668-37.343-28.007c0-10.144,8.077-18.761,25.312-18.761c7.542,0,15.441,1.975,20.917,5.565l-3.682,9.066
			c-5.654-3.321-11.85-4.937-17.323-4.937c-9.696,0-13.647,3.77-13.647,8.528c0,13.376,37.255,4.668,37.255,27.739
			c0,10.054-8.171,18.672-25.406,18.672C1139.029,214.197,1129.245,211.144,1124.038,206.656z"/>
		<path fill="#FFFFFF" d="M1192.982,150.461h11.668v62.837h-11.668V150.461z"/>
		<path fill="#FFFFFF" d="M1271.707,181.162h11.04v25.045c-6.552,5.297-15.71,7.989-24.596,7.989
			c-19.48,0-33.842-13.555-33.842-32.316s14.363-32.316,34.024-32.316c10.503,0,19.298,3.501,25.225,10.234l-7.361,7.181
			c-4.939-4.938-10.593-7.181-17.326-7.181c-13.375,0-22.799,9.066-22.799,22.083c0,12.747,9.424,22.083,22.709,22.083
			c4.489,0,8.889-0.898,12.928-3.232V181.162z"/>
		<path fill="#FFFFFF" d="M1361.118,150.461v62.837h-9.605l-34.649-42.55v42.55h-11.581v-62.837h9.605l34.649,42.55v-42.55H1361.118
			z"/>
	</g>
</g>
<g>
</g>
<g>
</g>
<g>
</g>
<g>
</g>
<g>
</g>
<g>
</g>
<g>
</g>
<g>
</g>
<g>
</g>
<g>
</g>
<g>
</g>
<g>
</g>
<g>
</g>
<g>
</g>
<g>
</g>
</svg>
